<mxfile host="app.diagrams.net" modified="2023-09-28T12:06:36.129Z" agent="Mozilla/5.0 (Macintosh; Intel Mac OS X 10_15_7) AppleWebKit/605.1.15 (KHTML, like Gecko) Version/16.5.2 Safari/605.1.15" etag="bm1PAm9kPw6t4FG6dono" version="22.0.0" type="github">
  <diagram name="Page-1" id="2c0d36ab-eaac-3732-788b-9136903baeff">
    <mxGraphModel dx="1700" dy="1092" grid="1" gridSize="10" guides="1" tooltips="1" connect="1" arrows="1" fold="1" page="1" pageScale="1.5" pageWidth="1169" pageHeight="827" background="none" math="0" shadow="0">
      <root>
        <mxCell id="0" />
        <mxCell id="1" parent="0" />
        <mxCell id="123" value="" style="fillColor=#AE4132;strokeColor=none;opacity=30;" parent="1" vertex="1">
          <mxGeometry x="755" y="170.00000000000003" width="210" height="99.99999999999994" as="geometry" />
        </mxCell>
        <mxCell id="122" value="" style="fillColor=#10739E;strokeColor=none;opacity=30;" parent="1" vertex="1">
          <mxGeometry x="280" y="325.5" width="1160" height="100" as="geometry" />
        </mxCell>
        <mxCell id="hWkCqBID7FCf3jOFODi1-167" style="edgeStyle=orthogonalEdgeStyle;rounded=0;orthogonalLoop=1;jettySize=auto;html=1;entryX=0.5;entryY=0;entryDx=0;entryDy=0;" edge="1" parent="1" source="2" target="10">
          <mxGeometry relative="1" as="geometry" />
        </mxCell>
        <mxCell id="2" value="Machine Learning" style="rounded=1;fillColor=#23445D;gradientColor=none;strokeColor=none;fontColor=#FFFFFF;fontStyle=1;fontFamily=Tahoma;fontSize=14" parent="1" vertex="1">
          <mxGeometry x="765" y="180" width="190" height="80" as="geometry" />
        </mxCell>
        <mxCell id="4" value="Reinforcement" style="rounded=1;fillColor=#23445D;gradientColor=none;strokeColor=none;fontColor=#FFFFFF;fontStyle=1;fontFamily=Tahoma;fontSize=14" parent="1" vertex="1">
          <mxGeometry x="1239.9999999999998" y="335.5" width="190" height="80" as="geometry" />
        </mxCell>
        <mxCell id="9" value="" style="edgeStyle=elbowEdgeStyle;elbow=vertical;strokeWidth=2;rounded=0" parent="1" source="2" target="4" edge="1">
          <mxGeometry x="337" y="215.5" width="100" height="100" as="geometry">
            <mxPoint x="337" y="315.5" as="sourcePoint" />
            <mxPoint x="437" y="215.5" as="targetPoint" />
          </mxGeometry>
        </mxCell>
        <mxCell id="10" value="Semi-supervised" style="rounded=1;fillColor=#23445D;gradientColor=none;strokeColor=none;fontColor=#FFFFFF;fontStyle=1;fontFamily=Tahoma;fontSize=14" parent="1" vertex="1">
          <mxGeometry x="930" y="335.5" width="190" height="80" as="geometry" />
        </mxCell>
        <mxCell id="12" value="Unsupervised" style="rounded=1;fillColor=#23445D;gradientColor=none;strokeColor=none;fontColor=#FFFFFF;fontStyle=1;fontFamily=Tahoma;fontSize=14" parent="1" vertex="1">
          <mxGeometry x="599.9999999999999" y="335.5" width="190" height="80" as="geometry" />
        </mxCell>
        <mxCell id="13" value="Supervised" style="rounded=1;fillColor=#23445D;gradientColor=none;strokeColor=none;fontColor=#FFFFFF;fontStyle=1;fontFamily=Tahoma;fontSize=14" parent="1" vertex="1">
          <mxGeometry x="290" y="335.5" width="190" height="80" as="geometry" />
        </mxCell>
        <mxCell id="16" value="Linear Regression" style="rounded=1;fillColor=#23445D;gradientColor=none;strokeColor=none;fontColor=#FFFFFF;fontStyle=1;fontFamily=Tahoma;fontSize=14" parent="1" vertex="1">
          <mxGeometry x="420" y="455.5" width="130" height="60" as="geometry" />
        </mxCell>
        <mxCell id="17" value="Decision Trees" style="rounded=1;fillColor=#23445D;gradientColor=none;strokeColor=none;fontColor=#FFFFFF;fontStyle=1;fontFamily=Tahoma;fontSize=14" parent="1" vertex="1">
          <mxGeometry x="420" y="545.5" width="130" height="60" as="geometry" />
        </mxCell>
        <mxCell id="18" value="Random Forest" style="rounded=1;fillColor=#23445D;gradientColor=none;strokeColor=none;fontColor=#FFFFFF;fontStyle=1;fontFamily=Tahoma;fontSize=14" parent="1" vertex="1">
          <mxGeometry x="420" y="635.5" width="130" height="60" as="geometry" />
        </mxCell>
        <mxCell id="19" value="Support Vector&#xa;Â Machines" style="rounded=1;fillColor=#23445D;gradientColor=none;strokeColor=none;fontColor=#FFFFFF;fontStyle=1;fontFamily=Tahoma;fontSize=14" parent="1" vertex="1">
          <mxGeometry x="420" y="725.5" width="130" height="60" as="geometry" />
        </mxCell>
        <mxCell id="20" value="k-Nearest &#xa;Neighbors" style="rounded=1;fillColor=#23445D;gradientColor=none;strokeColor=none;fontColor=#FFFFFF;fontStyle=1;fontFamily=Tahoma;fontSize=14" parent="1" vertex="1">
          <mxGeometry x="420" y="815.5" width="130" height="60" as="geometry" />
        </mxCell>
        <mxCell id="23" value="Logistic &#xa;Regression" style="rounded=1;fillColor=#23445D;gradientColor=none;strokeColor=none;fontColor=#FFFFFF;fontStyle=1;fontFamily=Tahoma;fontSize=14" parent="1" vertex="1">
          <mxGeometry x="420" y="905.4999999999999" width="130" height="60" as="geometry" />
        </mxCell>
        <mxCell id="59" value="" style="edgeStyle=elbowEdgeStyle;elbow=vertical;strokeWidth=2;rounded=0" parent="1" source="2" target="12" edge="1">
          <mxGeometry x="347" y="225.5" width="100" height="100" as="geometry">
            <mxPoint x="861.9999999999999" y="275.5" as="sourcePoint" />
            <mxPoint x="1466.9999999999998" y="345.5" as="targetPoint" />
          </mxGeometry>
        </mxCell>
        <mxCell id="61" value="" style="edgeStyle=elbowEdgeStyle;elbow=vertical;strokeWidth=2;rounded=0" parent="1" source="2" target="13" edge="1">
          <mxGeometry x="-23" y="135.5" width="100" height="100" as="geometry">
            <mxPoint x="-23" y="235.5" as="sourcePoint" />
            <mxPoint x="77" y="135.5" as="targetPoint" />
          </mxGeometry>
        </mxCell>
        <mxCell id="64" value="" style="edgeStyle=elbowEdgeStyle;elbow=horizontal;strokeWidth=2;rounded=0" parent="1" source="13" target="16" edge="1">
          <mxGeometry x="-23" y="135.5" width="100" height="100" as="geometry">
            <mxPoint x="160" y="235.5" as="sourcePoint" />
            <mxPoint x="260" y="135.5" as="targetPoint" />
            <Array as="points">
              <mxPoint x="385" y="435.5" />
            </Array>
          </mxGeometry>
        </mxCell>
        <mxCell id="65" value="" style="edgeStyle=elbowEdgeStyle;elbow=horizontal;strokeWidth=2;rounded=0" parent="1" source="13" target="17" edge="1">
          <mxGeometry x="-23" y="135.5" width="100" height="100" as="geometry">
            <mxPoint x="160" y="235.5" as="sourcePoint" />
            <mxPoint x="260" y="135.5" as="targetPoint" />
            <Array as="points">
              <mxPoint x="385" y="475.5" />
            </Array>
          </mxGeometry>
        </mxCell>
        <mxCell id="66" value="" style="edgeStyle=elbowEdgeStyle;elbow=horizontal;strokeWidth=2;rounded=0" parent="1" source="13" target="18" edge="1">
          <mxGeometry x="-23" y="135.5" width="100" height="100" as="geometry">
            <mxPoint x="160" y="235.5" as="sourcePoint" />
            <mxPoint x="260" y="135.5" as="targetPoint" />
            <Array as="points">
              <mxPoint x="385" y="525.5" />
            </Array>
          </mxGeometry>
        </mxCell>
        <mxCell id="67" value="" style="edgeStyle=elbowEdgeStyle;elbow=horizontal;strokeWidth=2;rounded=0" parent="1" source="13" target="19" edge="1">
          <mxGeometry x="-23" y="135.5" width="100" height="100" as="geometry">
            <mxPoint x="160" y="235.5" as="sourcePoint" />
            <mxPoint x="260" y="135.5" as="targetPoint" />
            <Array as="points">
              <mxPoint x="385" y="575.5" />
            </Array>
          </mxGeometry>
        </mxCell>
        <mxCell id="68" value="" style="edgeStyle=elbowEdgeStyle;elbow=horizontal;strokeWidth=2;rounded=0" parent="1" source="13" target="20" edge="1">
          <mxGeometry x="-23" y="135.5" width="100" height="100" as="geometry">
            <mxPoint x="160" y="235.5" as="sourcePoint" />
            <mxPoint x="260" y="135.5" as="targetPoint" />
            <Array as="points">
              <mxPoint x="385" y="615.5" />
            </Array>
          </mxGeometry>
        </mxCell>
        <mxCell id="69" value="" style="edgeStyle=elbowEdgeStyle;elbow=horizontal;strokeWidth=2;rounded=0" parent="1" source="13" target="23" edge="1">
          <mxGeometry x="-23" y="135.5" width="100" height="100" as="geometry">
            <mxPoint x="160" y="235.5" as="sourcePoint" />
            <mxPoint x="260" y="135.5" as="targetPoint" />
            <Array as="points">
              <mxPoint x="385" y="665.5" />
            </Array>
          </mxGeometry>
        </mxCell>
        <mxCell id="hWkCqBID7FCf3jOFODi1-123" value="Programming" style="rounded=1;fillColor=#23445D;gradientColor=none;strokeColor=none;fontColor=#FFFFFF;fontStyle=1;fontFamily=Tahoma;fontSize=14" vertex="1" parent="1">
          <mxGeometry x="733" y="455.5" width="130" height="60" as="geometry" />
        </mxCell>
        <mxCell id="hWkCqBID7FCf3jOFODi1-124" value="HTTP" style="rounded=1;fillColor=#23445D;gradientColor=none;strokeColor=none;fontColor=#FFFFFF;fontStyle=1;fontFamily=Tahoma;fontSize=14" vertex="1" parent="1">
          <mxGeometry x="733" y="545.5" width="130" height="60" as="geometry" />
        </mxCell>
        <mxCell id="hWkCqBID7FCf3jOFODi1-125" value="HTS" style="rounded=1;fillColor=#23445D;gradientColor=none;strokeColor=none;fontColor=#FFFFFF;fontStyle=1;fontFamily=Tahoma;fontSize=14" vertex="1" parent="1">
          <mxGeometry x="733" y="635.5" width="130" height="60" as="geometry" />
        </mxCell>
        <mxCell id="hWkCqBID7FCf3jOFODi1-126" value="CVS" style="rounded=1;fillColor=#23445D;gradientColor=none;strokeColor=none;fontColor=#FFFFFF;fontStyle=1;fontFamily=Tahoma;fontSize=14" vertex="1" parent="1">
          <mxGeometry x="733" y="725.5" width="130" height="60" as="geometry" />
        </mxCell>
        <mxCell id="hWkCqBID7FCf3jOFODi1-127" value="Client / Server" style="rounded=1;fillColor=#23445D;gradientColor=none;strokeColor=none;fontColor=#FFFFFF;fontStyle=1;fontFamily=Tahoma;fontSize=14" vertex="1" parent="1">
          <mxGeometry x="733" y="815.5" width="130" height="60" as="geometry" />
        </mxCell>
        <mxCell id="hWkCqBID7FCf3jOFODi1-128" value="Data Collection" style="rounded=1;fillColor=#23445D;gradientColor=none;strokeColor=none;fontColor=#FFFFFF;fontStyle=1;fontFamily=Tahoma;fontSize=14" vertex="1" parent="1">
          <mxGeometry x="733" y="905.4999999999999" width="130" height="60" as="geometry" />
        </mxCell>
        <mxCell id="hWkCqBID7FCf3jOFODi1-136" value="" style="edgeStyle=elbowEdgeStyle;elbow=horizontal;strokeWidth=2;rounded=0" edge="1" parent="1">
          <mxGeometry x="-23" y="135.5" width="100" height="100" as="geometry">
            <mxPoint x="698" y="415.5" as="sourcePoint" />
            <mxPoint x="733" y="485.5" as="targetPoint" />
            <Array as="points">
              <mxPoint x="698" y="435" />
            </Array>
          </mxGeometry>
        </mxCell>
        <mxCell id="hWkCqBID7FCf3jOFODi1-137" value="" style="edgeStyle=elbowEdgeStyle;elbow=horizontal;strokeWidth=2;rounded=0" edge="1" parent="1">
          <mxGeometry x="-23" y="135.5" width="100" height="100" as="geometry">
            <mxPoint x="698" y="415.5" as="sourcePoint" />
            <mxPoint x="733" y="575.5" as="targetPoint" />
            <Array as="points">
              <mxPoint x="698" y="475" />
            </Array>
          </mxGeometry>
        </mxCell>
        <mxCell id="hWkCqBID7FCf3jOFODi1-138" value="" style="edgeStyle=elbowEdgeStyle;elbow=horizontal;strokeWidth=2;rounded=0" edge="1" parent="1">
          <mxGeometry x="-23" y="135.5" width="100" height="100" as="geometry">
            <mxPoint x="698" y="415.5" as="sourcePoint" />
            <mxPoint x="733" y="665.5" as="targetPoint" />
            <Array as="points">
              <mxPoint x="698" y="525" />
            </Array>
          </mxGeometry>
        </mxCell>
        <mxCell id="hWkCqBID7FCf3jOFODi1-139" value="" style="edgeStyle=elbowEdgeStyle;elbow=horizontal;strokeWidth=2;rounded=0" edge="1" parent="1">
          <mxGeometry x="-23" y="135.5" width="100" height="100" as="geometry">
            <mxPoint x="698" y="415.5" as="sourcePoint" />
            <mxPoint x="733" y="755.5" as="targetPoint" />
            <Array as="points">
              <mxPoint x="698" y="575" />
            </Array>
          </mxGeometry>
        </mxCell>
        <mxCell id="hWkCqBID7FCf3jOFODi1-140" value="" style="edgeStyle=elbowEdgeStyle;elbow=horizontal;strokeWidth=2;rounded=0" edge="1" parent="1">
          <mxGeometry x="-23" y="135.5" width="100" height="100" as="geometry">
            <mxPoint x="698" y="415.5" as="sourcePoint" />
            <mxPoint x="733" y="845.5" as="targetPoint" />
            <Array as="points">
              <mxPoint x="698" y="615" />
            </Array>
          </mxGeometry>
        </mxCell>
        <mxCell id="hWkCqBID7FCf3jOFODi1-141" value="" style="edgeStyle=elbowEdgeStyle;elbow=horizontal;strokeWidth=2;rounded=0" edge="1" parent="1">
          <mxGeometry x="-23" y="135.5" width="100" height="100" as="geometry">
            <mxPoint x="698" y="415.5" as="sourcePoint" />
            <mxPoint x="733" y="935.5" as="targetPoint" />
            <Array as="points">
              <mxPoint x="698" y="665" />
            </Array>
          </mxGeometry>
        </mxCell>
        <mxCell id="hWkCqBID7FCf3jOFODi1-143" value="Programming" style="rounded=1;fillColor=#23445D;gradientColor=none;strokeColor=none;fontColor=#FFFFFF;fontStyle=1;fontFamily=Tahoma;fontSize=14" vertex="1" parent="1">
          <mxGeometry x="1058" y="455.5" width="130" height="60" as="geometry" />
        </mxCell>
        <mxCell id="hWkCqBID7FCf3jOFODi1-144" value="HTTP" style="rounded=1;fillColor=#23445D;gradientColor=none;strokeColor=none;fontColor=#FFFFFF;fontStyle=1;fontFamily=Tahoma;fontSize=14" vertex="1" parent="1">
          <mxGeometry x="1058" y="545.5" width="130" height="60" as="geometry" />
        </mxCell>
        <mxCell id="hWkCqBID7FCf3jOFODi1-145" value="HTS" style="rounded=1;fillColor=#23445D;gradientColor=none;strokeColor=none;fontColor=#FFFFFF;fontStyle=1;fontFamily=Tahoma;fontSize=14" vertex="1" parent="1">
          <mxGeometry x="1058" y="635.5" width="130" height="60" as="geometry" />
        </mxCell>
        <mxCell id="hWkCqBID7FCf3jOFODi1-146" value="CVS" style="rounded=1;fillColor=#23445D;gradientColor=none;strokeColor=none;fontColor=#FFFFFF;fontStyle=1;fontFamily=Tahoma;fontSize=14" vertex="1" parent="1">
          <mxGeometry x="1058" y="725.5" width="130" height="60" as="geometry" />
        </mxCell>
        <mxCell id="hWkCqBID7FCf3jOFODi1-147" value="Client / Server" style="rounded=1;fillColor=#23445D;gradientColor=none;strokeColor=none;fontColor=#FFFFFF;fontStyle=1;fontFamily=Tahoma;fontSize=14" vertex="1" parent="1">
          <mxGeometry x="1058" y="815.5" width="130" height="60" as="geometry" />
        </mxCell>
        <mxCell id="hWkCqBID7FCf3jOFODi1-148" value="Data Collection" style="rounded=1;fillColor=#23445D;gradientColor=none;strokeColor=none;fontColor=#FFFFFF;fontStyle=1;fontFamily=Tahoma;fontSize=14" vertex="1" parent="1">
          <mxGeometry x="1058" y="905.4999999999999" width="130" height="60" as="geometry" />
        </mxCell>
        <mxCell id="hWkCqBID7FCf3jOFODi1-149" value="" style="edgeStyle=elbowEdgeStyle;elbow=horizontal;strokeWidth=2;rounded=0" edge="1" parent="1">
          <mxGeometry x="-23" y="135.5" width="100" height="100" as="geometry">
            <mxPoint x="1023" y="415.5" as="sourcePoint" />
            <mxPoint x="1058" y="485.5" as="targetPoint" />
            <Array as="points">
              <mxPoint x="1023" y="435" />
            </Array>
          </mxGeometry>
        </mxCell>
        <mxCell id="hWkCqBID7FCf3jOFODi1-150" value="" style="edgeStyle=elbowEdgeStyle;elbow=horizontal;strokeWidth=2;rounded=0" edge="1" parent="1">
          <mxGeometry x="-23" y="135.5" width="100" height="100" as="geometry">
            <mxPoint x="1023" y="415.5" as="sourcePoint" />
            <mxPoint x="1058" y="575.5" as="targetPoint" />
            <Array as="points">
              <mxPoint x="1023" y="475" />
            </Array>
          </mxGeometry>
        </mxCell>
        <mxCell id="hWkCqBID7FCf3jOFODi1-151" value="" style="edgeStyle=elbowEdgeStyle;elbow=horizontal;strokeWidth=2;rounded=0" edge="1" parent="1">
          <mxGeometry x="-23" y="135.5" width="100" height="100" as="geometry">
            <mxPoint x="1023" y="415.5" as="sourcePoint" />
            <mxPoint x="1058" y="665.5" as="targetPoint" />
            <Array as="points">
              <mxPoint x="1023" y="525" />
            </Array>
          </mxGeometry>
        </mxCell>
        <mxCell id="hWkCqBID7FCf3jOFODi1-152" value="" style="edgeStyle=elbowEdgeStyle;elbow=horizontal;strokeWidth=2;rounded=0" edge="1" parent="1">
          <mxGeometry x="-23" y="135.5" width="100" height="100" as="geometry">
            <mxPoint x="1023" y="415.5" as="sourcePoint" />
            <mxPoint x="1058" y="755.5" as="targetPoint" />
            <Array as="points">
              <mxPoint x="1023" y="575" />
            </Array>
          </mxGeometry>
        </mxCell>
        <mxCell id="hWkCqBID7FCf3jOFODi1-153" value="" style="edgeStyle=elbowEdgeStyle;elbow=horizontal;strokeWidth=2;rounded=0" edge="1" parent="1">
          <mxGeometry x="-23" y="135.5" width="100" height="100" as="geometry">
            <mxPoint x="1023" y="415.5" as="sourcePoint" />
            <mxPoint x="1058" y="845.5" as="targetPoint" />
            <Array as="points">
              <mxPoint x="1023" y="615" />
            </Array>
          </mxGeometry>
        </mxCell>
        <mxCell id="hWkCqBID7FCf3jOFODi1-154" value="" style="edgeStyle=elbowEdgeStyle;elbow=horizontal;strokeWidth=2;rounded=0" edge="1" parent="1">
          <mxGeometry x="-23" y="135.5" width="100" height="100" as="geometry">
            <mxPoint x="1023" y="415.5" as="sourcePoint" />
            <mxPoint x="1058" y="935.5" as="targetPoint" />
            <Array as="points">
              <mxPoint x="1023" y="665" />
            </Array>
          </mxGeometry>
        </mxCell>
        <mxCell id="hWkCqBID7FCf3jOFODi1-155" value="Programming" style="rounded=1;fillColor=#23445D;gradientColor=none;strokeColor=none;fontColor=#FFFFFF;fontStyle=1;fontFamily=Tahoma;fontSize=14" vertex="1" parent="1">
          <mxGeometry x="1373" y="455.5" width="130" height="60" as="geometry" />
        </mxCell>
        <mxCell id="hWkCqBID7FCf3jOFODi1-156" value="HTTP" style="rounded=1;fillColor=#23445D;gradientColor=none;strokeColor=none;fontColor=#FFFFFF;fontStyle=1;fontFamily=Tahoma;fontSize=14" vertex="1" parent="1">
          <mxGeometry x="1373" y="545.5" width="130" height="60" as="geometry" />
        </mxCell>
        <mxCell id="hWkCqBID7FCf3jOFODi1-157" value="HTS" style="rounded=1;fillColor=#23445D;gradientColor=none;strokeColor=none;fontColor=#FFFFFF;fontStyle=1;fontFamily=Tahoma;fontSize=14" vertex="1" parent="1">
          <mxGeometry x="1373" y="635.5" width="130" height="60" as="geometry" />
        </mxCell>
        <mxCell id="hWkCqBID7FCf3jOFODi1-158" value="CVS" style="rounded=1;fillColor=#23445D;gradientColor=none;strokeColor=none;fontColor=#FFFFFF;fontStyle=1;fontFamily=Tahoma;fontSize=14" vertex="1" parent="1">
          <mxGeometry x="1373" y="725.5" width="130" height="60" as="geometry" />
        </mxCell>
        <mxCell id="hWkCqBID7FCf3jOFODi1-159" value="Client / Server" style="rounded=1;fillColor=#23445D;gradientColor=none;strokeColor=none;fontColor=#FFFFFF;fontStyle=1;fontFamily=Tahoma;fontSize=14" vertex="1" parent="1">
          <mxGeometry x="1373" y="815.5" width="130" height="60" as="geometry" />
        </mxCell>
        <mxCell id="hWkCqBID7FCf3jOFODi1-160" value="Data Collection" style="rounded=1;fillColor=#23445D;gradientColor=none;strokeColor=none;fontColor=#FFFFFF;fontStyle=1;fontFamily=Tahoma;fontSize=14" vertex="1" parent="1">
          <mxGeometry x="1373" y="905.4999999999999" width="130" height="60" as="geometry" />
        </mxCell>
        <mxCell id="hWkCqBID7FCf3jOFODi1-161" value="" style="edgeStyle=elbowEdgeStyle;elbow=horizontal;strokeWidth=2;rounded=0" edge="1" parent="1">
          <mxGeometry x="-23" y="135.5" width="100" height="100" as="geometry">
            <mxPoint x="1338" y="415.5" as="sourcePoint" />
            <mxPoint x="1373" y="485.5" as="targetPoint" />
            <Array as="points">
              <mxPoint x="1338" y="435" />
            </Array>
          </mxGeometry>
        </mxCell>
        <mxCell id="hWkCqBID7FCf3jOFODi1-162" value="" style="edgeStyle=elbowEdgeStyle;elbow=horizontal;strokeWidth=2;rounded=0" edge="1" parent="1">
          <mxGeometry x="-23" y="135.5" width="100" height="100" as="geometry">
            <mxPoint x="1338" y="415.5" as="sourcePoint" />
            <mxPoint x="1373" y="575.5" as="targetPoint" />
            <Array as="points">
              <mxPoint x="1338" y="475" />
            </Array>
          </mxGeometry>
        </mxCell>
        <mxCell id="hWkCqBID7FCf3jOFODi1-163" value="" style="edgeStyle=elbowEdgeStyle;elbow=horizontal;strokeWidth=2;rounded=0" edge="1" parent="1">
          <mxGeometry x="-23" y="135.5" width="100" height="100" as="geometry">
            <mxPoint x="1338" y="415.5" as="sourcePoint" />
            <mxPoint x="1373" y="665.5" as="targetPoint" />
            <Array as="points">
              <mxPoint x="1338" y="525" />
            </Array>
          </mxGeometry>
        </mxCell>
        <mxCell id="hWkCqBID7FCf3jOFODi1-164" value="" style="edgeStyle=elbowEdgeStyle;elbow=horizontal;strokeWidth=2;rounded=0" edge="1" parent="1">
          <mxGeometry x="-23" y="135.5" width="100" height="100" as="geometry">
            <mxPoint x="1338" y="415.5" as="sourcePoint" />
            <mxPoint x="1373" y="755.5" as="targetPoint" />
            <Array as="points">
              <mxPoint x="1338" y="575" />
            </Array>
          </mxGeometry>
        </mxCell>
        <mxCell id="hWkCqBID7FCf3jOFODi1-165" value="" style="edgeStyle=elbowEdgeStyle;elbow=horizontal;strokeWidth=2;rounded=0" edge="1" parent="1">
          <mxGeometry x="-23" y="135.5" width="100" height="100" as="geometry">
            <mxPoint x="1338" y="415.5" as="sourcePoint" />
            <mxPoint x="1373" y="845.5" as="targetPoint" />
            <Array as="points">
              <mxPoint x="1338" y="615" />
            </Array>
          </mxGeometry>
        </mxCell>
        <mxCell id="hWkCqBID7FCf3jOFODi1-166" value="" style="edgeStyle=elbowEdgeStyle;elbow=horizontal;strokeWidth=2;rounded=0" edge="1" parent="1">
          <mxGeometry x="-23" y="135.5" width="100" height="100" as="geometry">
            <mxPoint x="1338" y="415.5" as="sourcePoint" />
            <mxPoint x="1373" y="935.5" as="targetPoint" />
            <Array as="points">
              <mxPoint x="1338" y="665" />
            </Array>
          </mxGeometry>
        </mxCell>
        <mxCell id="hWkCqBID7FCf3jOFODi1-168" value="Logistic &#xa;Regression" style="rounded=1;fillColor=#23445D;gradientColor=none;strokeColor=none;fontColor=#FFFFFF;fontStyle=1;fontFamily=Tahoma;fontSize=14" vertex="1" parent="1">
          <mxGeometry x="420" y="994.4999999999999" width="130" height="60" as="geometry" />
        </mxCell>
        <mxCell id="hWkCqBID7FCf3jOFODi1-169" value="" style="edgeStyle=elbowEdgeStyle;elbow=horizontal;strokeWidth=2;rounded=0" edge="1" parent="1" target="hWkCqBID7FCf3jOFODi1-168">
          <mxGeometry x="-23" y="135.5" width="100" height="100" as="geometry">
            <mxPoint x="385" y="505" as="sourcePoint" />
            <mxPoint x="260" y="224.5" as="targetPoint" />
            <Array as="points">
              <mxPoint x="385" y="754.5" />
            </Array>
          </mxGeometry>
        </mxCell>
        <mxCell id="hWkCqBID7FCf3jOFODi1-170" value="Neural Networks" style="rounded=1;fillColor=#23445D;gradientColor=none;strokeColor=none;fontColor=#FFFFFF;fontStyle=1;fontFamily=Tahoma;fontSize=14" vertex="1" parent="1">
          <mxGeometry x="420" y="1089.5" width="130" height="60" as="geometry" />
        </mxCell>
        <mxCell id="hWkCqBID7FCf3jOFODi1-171" value="" style="edgeStyle=elbowEdgeStyle;elbow=horizontal;strokeWidth=2;rounded=0" edge="1" parent="1" target="hWkCqBID7FCf3jOFODi1-170">
          <mxGeometry x="-23" y="135.5" width="100" height="100" as="geometry">
            <mxPoint x="385" y="590" as="sourcePoint" />
            <mxPoint x="260" y="309.5" as="targetPoint" />
            <Array as="points">
              <mxPoint x="385" y="839.5" />
            </Array>
          </mxGeometry>
        </mxCell>
        <mxCell id="hWkCqBID7FCf3jOFODi1-172" value="Linear Discriminant&#xa;Â Analysis" style="rounded=1;fillColor=#23445D;gradientColor=none;strokeColor=none;fontColor=#FFFFFF;fontStyle=1;fontFamily=Tahoma;fontSize=14" vertex="1" parent="1">
          <mxGeometry x="420" y="1179.5" width="130" height="60" as="geometry" />
        </mxCell>
        <mxCell id="hWkCqBID7FCf3jOFODi1-173" value="" style="edgeStyle=elbowEdgeStyle;elbow=horizontal;strokeWidth=2;rounded=0" edge="1" parent="1" target="hWkCqBID7FCf3jOFODi1-172">
          <mxGeometry x="-23" y="135.5" width="100" height="100" as="geometry">
            <mxPoint x="385" y="680" as="sourcePoint" />
            <mxPoint x="260" y="399.5" as="targetPoint" />
            <Array as="points">
              <mxPoint x="385" y="929.5" />
            </Array>
          </mxGeometry>
        </mxCell>
      </root>
    </mxGraphModel>
  </diagram>
</mxfile>
